HIERARCHY
ROOT pelvis
{
  OFFSET 0 100 0
  CHANNELS 6 Xposition Yposition Zposition Zrotation Xrotation Yrotation
  JOINT pelvis_right_femur
  {
    OFFSET -10.78128 -3.44521 -0.5502486
    CHANNELS 3 Zrotation Xrotation Yrotation
    JOINT right_femur_tibia
    {
      OFFSET -0.8047443 -44.0398 -0.1307829
      CHANNELS 3 Zrotation Xrotation Yrotation
      JOINT right_tibia_foot
      {
        OFFSET 3.006224 -47.83518 -5
        CHANNELS 3 Zrotation Xrotation Yrotation
        End Site
        {
          OFFSET 0 -5 15
        }
      }
    }
  }
  JOINT pelvis_left_femur
  {
    OFFSET 10.78128 -3.44521 -0.5502486
    CHANNELS 3 Zrotation Xrotation Yrotation
    JOINT left_femur_tibia
    {
      OFFSET 0.8047443 -44.0398 -0.1307829
      CHANNELS 3 Zrotation Xrotation Yrotation
      JOINT left_tibia_foot
      {
        OFFSET -4.370144 -48.10324 -4.275266
        CHANNELS 3 Zrotation Xrotation Yrotation
        End Site
        {
          OFFSET 0 -5 15
        }
      }
    }
  }
  JOINT pelvis_spine1
  {
    OFFSET 0 6.468898 -3.129235
    CHANNELS 3 Zrotation Xrotation Yrotation
    JOINT spine1
    {
      OFFSET 0 23.15396 4.99043
      CHANNELS 3 Zrotation Xrotation Yrotation
      JOINT spine2
      {
        OFFSET 0 20.79997 -5.064912
        CHANNELS 3 Zrotation Xrotation Yrotation
        JOINT neck
        {
          OFFSET 0 14.38658 9.616178
          CHANNELS 3 Zrotation Xrotation Yrotation
          End Site
          {
            OFFSET 0 20 0
          }
        }
      }
      JOINT right_manubrium
      {
        OFFSET -5.722621 16.35077 3.967754
        CHANNELS 3 Zrotation Xrotation Yrotation
        JOINT right_clavicle
        {
          OFFSET -13.16364 1.694482 -4.693211
          CHANNELS 3 Zrotation Xrotation Yrotation
          JOINT right_humerus
          {
            OFFSET -28.5034 -0.3100689 -2.792744
            CHANNELS 3 Zrotation Xrotation Yrotation
            JOINT right_radius
            {
              OFFSET -25.15693 0.02248979 -1.271978
              CHANNELS 3 Zrotation Xrotation Yrotation
              End Site
              {
                OFFSET -15 0 0
              }
            }
          }
        }
      }
      JOINT left_manubrium
      {
        OFFSET 5.722621 16.35077 3.967754
        CHANNELS 3 Zrotation Xrotation Yrotation
        JOINT left_clavicle
        {
          OFFSET 13.16364 1.694482 -4.693211
          CHANNELS 3 Zrotation Xrotation Yrotation
          JOINT left_humerus
          {
            OFFSET 29.39168 -1.063119 -2.237045
            CHANNELS 3 Zrotation Xrotation Yrotation
            JOINT left_radius
            {
              OFFSET 24.59957 -0.9528479 0.9047498
              CHANNELS 3 Zrotation Xrotation Yrotation
              End Site
              {
                OFFSET 15 -0 -0
              }
            }
          }
        }
      }
    }
  }
}
MOTION
Frames: 21
Frame Time: 0.0416666666667
-724.7966 110.5723 -147.8028 9.908112 1.617431 96.09917 2.448951 17.31627 -6.267614 -0 20.47342 -0 -17.32616 -6.705336 3.993655 0.1916631 -15.55621 -9.334042 -0 13.94807 -0 -2.43743 -2.204391 17.80136 -0.1191085 -0.4541032 5.970782 -1.563546 10.91163 -2.17767 0.4615534 23.83533 6.715174 6.533189 -14.56299 4.397648 0.9945287 -23.33456 10.50199 82.91651 26.37341 -4.404326 -0 0 22.24142 -23.08688 9.008413 9.520757 6.056462 -20.51974 -7.634509 -96.15982 7.361066 29.84288 -0 0 8.310731 16.85847 17.57375 -10.72484
-719.1228 110.5582 -149.6702 9.924036 1.515639 95.51668 2.448951 17.31627 -6.267614 -0 20.47342 -0 -17.32616 -6.705336 3.993655 0.1916631 -15.55621 -9.334042 -0 13.94807 -0 -2.43743 -2.204391 17.80136 -0.1191085 -0.4541032 5.970782 -1.563546 10.91163 -2.17767 0.4615534 23.83533 6.715174 6.533189 -14.56299 4.397648 0.9945287 -23.33456 10.50199 82.91651 26.37341 -4.404326 -0 0 22.24142 -23.08688 9.008413 9.520757 6.056462 -20.51974 -7.634509 -96.15982 7.361066 29.84288 -0 0 8.310731 16.85847 17.57375 -10.72484
-713.43 110.544 -151.4789 9.938924 1.41369 94.93424 2.448951 17.31627 -6.267614 -0 20.47342 -0 -17.32616 -6.705336 3.993655 0.1916631 -15.55621 -9.334042 -0 13.94807 -0 -2.43743 -2.204391 17.80136 -0.1191085 -0.4541032 5.970782 -1.563546 10.91163 -2.17767 0.4615534 23.83533 6.715174 6.533189 -14.56299 4.397648 0.9945287 -23.33456 10.50199 82.91651 26.37341 -4.404326 -0 0 22.24142 -23.08688 9.008413 9.520757 6.056462 -20.51974 -7.634509 -96.15982 7.361066 29.84288 -0 0 8.310731 16.85847 17.57375 -10.72484
-707.7189 110.5299 -153.2289 9.952773 1.311596 94.35186 2.448951 17.31627 -6.267614 -0 20.47342 -0 -17.32616 -6.705336 3.993655 0.1916631 -15.55621 -9.334042 -0 13.94807 -0 -2.43743 -2.204391 17.80136 -0.1191085 -0.4541032 5.970782 -1.563546 10.91163 -2.17767 0.4615534 23.83533 6.715174 6.533189 -14.56299 4.397648 0.9945287 -23.33456 10.50199 82.91651 26.37341 -4.404326 -0 0 22.24142 -23.08688 9.008413 9.520757 6.056462 -20.51974 -7.634509 -96.15982 7.361066 29.84288 -0 0 8.310731 16.85847 17.57375 -10.72484
-701.9901 110.5157 -154.9198 9.965584 1.209366 93.76952 2.448951 17.31627 -6.267614 -0 20.47342 -0 -17.32616 -6.705336 3.993655 0.1916631 -15.55621 -9.334042 -0 13.94807 -0 -2.43743 -2.204391 17.80136 -0.1191085 -0.4541032 5.970782 -1.563546 10.91163 -2.17767 0.4615534 23.83533 6.715174 6.533189 -14.56299 4.397648 0.9945287 -23.33456 10.50199 82.91651 26.37341 -4.404326 -0 0 22.24142 -23.08688 9.008413 9.520757 6.056462 -20.51974 -7.634509 -96.15982 7.361066 29.84288 -0 0 8.310731 16.85847 17.57375 -10.72484
-696.2441 110.5016 -156.5515 9.977353 1.107011 93.18723 2.448951 17.31627 -6.267614 -0 20.47342 -0 -17.32616 -6.705336 3.993655 0.1916631 -15.55621 -9.334042 -0 13.94807 -0 -2.43743 -2.204391 17.80136 -0.1191085 -0.4541032 5.970782 -1.563546 10.91163 -2.17767 0.4615534 23.83533 6.715174 6.533189 -14.56299 4.397648 0.9945287 -23.33456 10.50199 82.91651 26.37341 -4.404326 -0 0 22.24142 -23.08688 9.008413 9.520757 6.056462 -20.51974 -7.634509 -96.15982 7.361066 29.84288 -0 0 8.310731 16.85847 17.57375 -10.72484
-690.4815 110.4874 -158.1239 9.988082 1.004542 92.60498 2.448951 17.31627 -6.267614 -0 20.47342 -0 -17.32616 -6.705336 3.993655 0.1916631 -15.55621 -9.334042 -0 13.94807 -0 -2.43743 -2.204391 17.80136 -0.1191085 -0.4541032 5.970782 -1.563546 10.91163 -2.17767 0.4615534 23.83533 6.715174 6.533189 -14.56299 4.397648 0.9945287 -23.33456 10.50199 82.91651 26.37341 -4.404326 -0 0 22.24142 -23.08688 9.008413 9.520757 6.056462 -20.51974 -7.634509 -96.15982 7.361066 29.84288 -0 0 8.310731 16.85847 17.57375 -10.72484
-684.7031 110.4733 -159.6367 9.997768 0.9019686 92.02276 2.448951 17.31627 -6.267614 -0 20.47342 -0 -17.32616 -6.705336 3.993655 0.1916631 -15.55621 -9.334042 -0 13.94807 -0 -2.43743 -2.204391 17.80136 -0.1191085 -0.4541032 5.970782 -1.563546 10.91163 -2.17767 0.4615534 23.83533 6.715174 6.533189 -14.56299 4.397648 0.9945287 -23.33456 10.50199 82.91651 26.37341 -4.404326 -0 0 22.24142 -23.08688 9.008413 9.520757 6.056462 -20.51974 -7.634509 -96.15982 7.361066 29.84288 -0 0 8.310731 16.85847 17.57375 -10.72484
-678.9094 110.4591 -161.0899 10.00641 0.7993026 91.44058 2.448951 17.31627 -6.267614 -0 20.47342 -0 -17.32616 -6.705336 3.993655 0.1916631 -15.55621 -9.334042 -0 13.94807 -0 -2.43743 -2.204391 17.80136 -0.1191085 -0.4541032 5.970782 -1.563546 10.91163 -2.17767 0.4615534 23.83533 6.715174 6.533189 -14.56299 4.397648 0.9945287 -23.33456 10.50199 82.91651 26.37341 -4.404326 -0 0 22.24142 -23.08688 9.008413 9.520757 6.056462 -20.51974 -7.634509 -96.15982 7.361066 29.84288 -0 0 8.310731 16.85847 17.57375 -10.72484
-673.1009 110.445 -162.4832 10.01401 0.696554 90.85842 2.448951 17.31627 -6.267614 -0 20.47342 -0 -17.32616 -6.705336 3.993655 0.1916631 -15.55621 -9.334042 -0 13.94807 -0 -2.43743 -2.204391 17.80136 -0.1191085 -0.4541032 5.970782 -1.563546 10.91163 -2.17767 0.4615534 23.83533 6.715174 6.533189 -14.56299 4.397648 0.9945287 -23.33456 10.50199 82.91651 26.37341 -4.404326 -0 0 22.24142 -23.08688 9.008413 9.520757 6.056462 -20.51974 -7.634509 -96.15982 7.361066 29.84288 -0 0 8.310731 16.85847 17.57375 -10.72484
-667.2784 110.4308 -163.8165 10.02057 0.5937336 90.2763 2.448951 17.31627 -6.267614 -0 20.47342 -0 -17.32616 -6.705336 3.993655 0.1916631 -15.55621 -9.334042 -0 13.94807 -0 -2.43743 -2.204391 17.80136 -0.1191085 -0.4541032 5.970782 -1.563546 10.91163 -2.17767 0.4615534 23.83533 6.715174 6.533189 -14.56299 4.397648 0.9945287 -23.33456 10.50199 82.91651 26.37341 -4.404326 -0 0 22.24142 -23.08688 9.008413 9.520757 6.056462 -20.51974 -7.634509 -96.15982 7.361066 29.84288 -0 0 8.310731 16.85847 17.57375 -10.72484
-661.4425 110.4167 -165.0896 10.02607 0.4908519 89.69419 2.448951 17.31627 -6.267614 -0 20.47342 -0 -17.32616 -6.705336 3.993655 0.1916631 -15.55621 -9.334042 -0 13.94807 -0 -2.43743 -2.204391 17.80136 -0.1191085 -0.4541032 5.970782 -1.563546 10.91163 -2.17767 0.4615534 23.83533 6.715174 6.533189 -14.56299 4.397648 0.9945287 -23.33456 10.50199 82.91651 26.37341 -4.404326 -0 0 22.24142 -23.08688 9.008413 9.520757 6.056462 -20.51974 -7.634509 -96.15982 7.361066 29.84288 -0 0 8.310731 16.85847 17.57375 -10.72484
-655.5938 110.4025 -166.3025 10.03054 0.3879195 89.1121 2.448951 17.31627 -6.267614 -0 20.47342 -0 -17.32616 -6.705336 3.993655 0.1916631 -15.55621 -9.334042 -0 13.94807 -0 -2.43743 -2.204391 17.80136 -0.1191085 -0.4541032 5.970782 -1.563546 10.91163 -2.17767 0.4615534 23.83533 6.715174 6.533189 -14.56299 4.397648 0.9945287 -23.33456 10.50199 82.91651 26.37341 -4.404326 -0 0 22.24142 -23.08688 9.008413 9.520757 6.056462 -20.51974 -7.634509 -96.15982 7.361066 29.84288 -0 0 8.310731 16.85847 17.57375 -10.72484
-649.7328 110.3884 -167.455 10.03396 0.2849471 88.53003 2.448951 17.31627 -6.267614 -0 20.47342 -0 -17.32616 -6.705336 3.993655 0.1916631 -15.55621 -9.334042 -0 13.94807 -0 -2.43743 -2.204391 17.80136 -0.1191085 -0.4541032 5.970782 -1.563546 10.91163 -2.17767 0.4615534 23.83533 6.715174 6.533189 -14.56299 4.397648 0.9945287 -23.33456 10.50199 82.91651 26.37341 -4.404326 -0 0 22.24142 -23.08688 9.008413 9.520757 6.056462 -20.51974 -7.634509 -96.15982 7.361066 29.84288 -0 0 8.310731 16.85847 17.57375 -10.72484
-643.8603 110.3742 -168.547 10.03633 0.1819452 87.94796 2.448951 17.31627 -6.267614 -0 20.47342 -0 -17.32616 -6.705336 3.993655 0.1916631 -15.55621 -9.334042 -0 13.94807 -0 -2.43743 -2.204391 17.80136 -0.1191085 -0.4541032 5.970782 -1.563546 10.91163 -2.17767 0.4615534 23.83533 6.715174 6.533189 -14.56299 4.397648 0.9945287 -23.33456 10.50199 82.91651 26.37341 -4.404326 -0 0 22.24142 -23.08688 9.008413 9.520757 6.056462 -20.51974 -7.634509 -96.15982 7.361066 29.84288 -0 0 8.310731 16.85847 17.57375 -10.72484
-637.9768 110.3601 -169.5783 10.03765 0.07892464 87.3659 2.448951 17.31627 -6.267614 -0 20.47342 -0 -17.32616 -6.705336 3.993655 0.1916631 -15.55621 -9.334042 -0 13.94807 -0 -2.43743 -2.204391 17.80136 -0.1191085 -0.4541032 5.970782 -1.563546 10.91163 -2.17767 0.4615534 23.83533 6.715174 6.533189 -14.56299 4.397648 0.9945287 -23.33456 10.50199 82.91651 26.37341 -4.404326 -0 0 22.24142 -23.08688 9.008413 9.520757 6.056462 -20.51974 -7.634509 -96.15982 7.361066 29.84288 -0 0 8.310731 16.85847 17.57375 -10.72484
-632.083 110.3459 -170.5488 10.03793 -0.02410411 86.78385 2.448951 17.31627 -6.267614 -0 20.47342 -0 -17.32616 -6.705336 3.993655 0.1916631 -15.55621 -9.334042 -0 13.94807 -0 -2.43743 -2.204391 17.80136 -0.1191085 -0.4541032 5.970782 -1.563546 10.91163 -2.17767 0.4615534 23.83533 6.715174 6.533189 -14.56299 4.397648 0.9945287 -23.33456 10.50199 82.91651 26.37341 -4.404326 -0 0 22.24142 -23.08688 9.008413 9.520757 6.056462 -20.51974 -7.634509 -96.15982 7.361066 29.84288 -0 0 8.310731 16.85847 17.57375 -10.72484
-626.1794 110.3318 -171.4586 10.03716 -0.1271304 86.20179 2.448951 17.31627 -6.267614 -0 20.47342 -0 -17.32616 -6.705336 3.993655 0.1916631 -15.55621 -9.334042 -0 13.94807 -0 -2.43743 -2.204391 17.80136 -0.1191085 -0.4541032 5.970782 -1.563546 10.91163 -2.17767 0.4615534 23.83533 6.715174 6.533189 -14.56299 4.397648 0.9945287 -23.33456 10.50199 82.91651 26.37341 -4.404326 -0 0 22.24142 -23.08688 9.008413 9.520757 6.056462 -20.51974 -7.634509 -96.15982 7.361066 29.84288 -0 0 8.310731 16.85847 17.57375 -10.72484
-620.2669 110.3176 -172.3073 10.03535 -0.2301435 85.61973 2.448951 17.31627 -6.267614 -0 20.47342 -0 -17.32616 -6.705336 3.993655 0.1916631 -15.55621 -9.334042 -0 13.94807 -0 -2.43743 -2.204391 17.80136 -0.1191085 -0.4541032 5.970782 -1.563546 10.91163 -2.17767 0.4615534 23.83533 6.715174 6.533189 -14.56299 4.397648 0.9945287 -23.33456 10.50199 82.91651 26.37341 -4.404326 -0 0 22.24142 -23.08688 9.008413 9.520757 6.056462 -20.51974 -7.634509 -96.15982 7.361066 29.84288 -0 0 8.310731 16.85847 17.57375 -10.72484
-614.3458 110.3035 -173.095 10.03249 -0.3331329 85.03766 2.448951 17.31627 -6.267614 -0 20.47342 -0 -17.32616 -6.705336 3.993655 0.1916631 -15.55621 -9.334042 -0 13.94807 -0 -2.43743 -2.204391 17.80136 -0.1191085 -0.4541032 5.970782 -1.563546 10.91163 -2.17767 0.4615534 23.83533 6.715174 6.533189 -14.56299 4.397648 0.9945287 -23.33456 10.50199 82.91651 26.37341 -4.404326 -0 0 22.24142 -23.08688 9.008413 9.520757 6.056462 -20.51974 -7.634509 -96.15982 7.361066 29.84288 -0 0 8.310731 16.85847 17.57375 -10.72484
-608.417 110.2893 -173.8216 10.02858 -0.4360879 84.45558 2.448951 17.31627 -6.267614 -0 20.47342 -0 -17.32616 -6.705336 3.993655 0.1916631 -15.55621 -9.334042 -0 13.94807 -0 -2.43743 -2.204391 17.80136 -0.1191085 -0.4541032 5.970782 -1.563546 10.91163 -2.17767 0.4615534 23.83533 6.715174 6.533189 -14.56299 4.397648 0.9945287 -23.33456 10.50199 82.91651 26.37341 -4.404326 -0 0 22.24142 -23.08688 9.008413 9.520757 6.056462 -20.51974 -7.634509 -96.15982 7.361066 29.84288 -0 0 8.310731 16.85847 17.57375 -10.72484
